<?xml version="1.0" encoding="UTF-8" standalone="no"?>
<!-- Generator: Adobe Illustrator 19.1.0, SVG Export Plug-In . SVG Version: 6.00 Build 0)  -->

<svg
   xmlns:dc="http://purl.org/dc/elements/1.1/"
   xmlns:cc="http://creativecommons.org/ns#"
   xmlns:rdf="http://www.w3.org/1999/02/22-rdf-syntax-ns#"
   xmlns:svg="http://www.w3.org/2000/svg"
   xmlns="http://www.w3.org/2000/svg"
   xmlns:sodipodi="http://sodipodi.sourceforge.net/DTD/sodipodi-0.dtd"
   xmlns:inkscape="http://www.inkscape.org/namespaces/inkscape"
   version="1.1"
   id="Capa_1"
   x="0px"
   y="0px"
   viewBox="0 0 250.00001 275.00001"
   xml:space="preserve"
   sodipodi:docname="download.svg"
   width="250"
   height="275"
   inkscape:version="0.92.5 (2060ec1f9f, 2020-04-08)"><metadata
   id="metadata45"><rdf:RDF><cc:Work
       rdf:about=""><dc:format>image/svg+xml</dc:format><dc:type
         rdf:resource="http://purl.org/dc/dcmitype/StillImage" /><dc:title></dc:title></cc:Work></rdf:RDF></metadata><defs
   id="defs43">
	
</defs><sodipodi:namedview
   pagecolor="#ffffff"
   bordercolor="#666666"
   borderopacity="1"
   objecttolerance="10"
   gridtolerance="10"
   guidetolerance="10"
   inkscape:pageopacity="0"
   inkscape:pageshadow="2"
   inkscape:window-width="1366"
   inkscape:window-height="719"
   id="namedview41"
   showgrid="false"
   inkscape:zoom="1.9411886"
   inkscape:cx="126.32731"
   inkscape:cy="122.09141"
   inkscape:window-x="0"
   inkscape:window-y="0"
   inkscape:window-maximized="1"
   inkscape:current-layer="g6" />
<g
   id="g6"
   transform="matrix(0.51271188,0,0,0.53699686,0,19.339178)">
		<path
   inkscape:connector-curvature="0"
   id="path2"
   d="M 395.5,91.106969 C 390.3,60.206993 375,32.006996 351.6,10.606996 c -26,-23.799997 -59.8,-36.899997 -95,-36.899997 -27.2,0 -53.7,7.8 -76.4,22.4999987 -18.9,12.1999987 -34.6,28.6999983 -45.7,48.0999983 -4.8,-0.9 -9.8,-1.4 -14.8,-1.4 -42.5,0 -77.1,34.599985 -77.1,77.099964 0,5.5 0.6,10.8 1.6,16 -27.5,20 -44.2,52.2 -44.2,86.5 0,27.7 10.3,54.6 29.1,75.9 19.3,21.8 44.8,34.7 72,36.2 0.3,0 0.5,0 0.8,0 h 86 c 7.5,0 13.5,-6 13.5,-13.5 0,-7.5 -6,-13.5 -13.5,-13.5 h -85.6 c -40.9,-2.5 -75.3,-41.4 -75.3,-85.2 0,-28.3 15.2,-54.7 39.7,-69 5.7,-3.3 8.1,-10.2 5.9,-16.4 -2,-5.4 -3,-11.1 -3,-17.2 0,-27.599991 22.5,-50.099973 50.1,-50.099973 5.9,0 11.7,0.999997 17.1,2.999997 6.6,2.399997 13.9,-0.6 16.9,-6.899994 18.7,-39.699994 59.1,-65.29999276 103,-65.29999276 59,0 107.7,44.19999876 113.3,102.79996276 0.6,6.1 5.2,11 11.2,12 44.5,7.6 78.1,48.7 78.1,95.6 0,49.7 -39.1,92.9 -87.3,96.6 h -73.7 c -7.5,0 -13.5,6 -13.5,13.5 0,7.5 6,13.5 13.5,13.5 h 74.2 c 0.3,0 0.6,0 1,0 30.5,-2.2 59,-16.2 80.2,-39.6 21.1,-23.2 32.6,-53 32.6,-84 -0.1,-56.1 -38.4,-106 -90.8,-119.799991 z" />
		<path
   inkscape:connector-curvature="0"
   id="path4"
   d="m 162.2,377.02442 c -5.30001,5.3 -5.30001,13.8 0,19.1 l 71.5,71.5 c 2.5,2.5 6,4 9.5,4 3.5,0 7,-1.4 9.49999,-4 l 71.50001,-71.5 c 5.3,-5.3 5.3,-13.8 0,-19.1 -2.6,-2.6 -6.1,-4 -9.5,-4 -3.4,0 -6.9,1.3 -9.5,4 l -48.5,48.5 v -222.9 c 0,-7.5 -6,-13.5 -13.5,-13.5 -7.5,0 -13.5,6 -13.5,13.5 v 222.9 l -48.5,-48.5 c -5.2,-5.3 -13.7,-5.3 -19,0 z" />
	</g>
<g
   id="g10"
   transform="translate(0,-211.29999)">
</g>
<g
   id="g12"
   transform="translate(0,-211.29999)">
</g>
<g
   id="g14"
   transform="translate(0,-211.29999)">
</g>
<g
   id="g16"
   transform="translate(0,-211.29999)">
</g>
<g
   id="g18"
   transform="translate(0,-211.29999)">
</g>
<g
   id="g20"
   transform="translate(0,-211.29999)">
</g>
<g
   id="g22"
   transform="translate(0,-211.29999)">
</g>
<g
   id="g24"
   transform="translate(0,-211.29999)">
</g>
<g
   id="g26"
   transform="translate(0,-211.29999)">
</g>
<g
   id="g28"
   transform="translate(0,-211.29999)">
</g>
<g
   id="g30"
   transform="translate(0,-211.29999)">
</g>
<g
   id="g32"
   transform="translate(0,-211.29999)">
</g>
<g
   id="g34"
   transform="translate(0,-211.29999)">
</g>
<g
   id="g36"
   transform="translate(0,-211.29999)">
</g>
<g
   id="g38"
   transform="translate(0,-211.29999)">
</g>
</svg>