<?xml version="1.0" encoding="UTF-8" standalone="no"?>
<!-- Generator: Adobe Illustrator 19.1.0, SVG Export Plug-In . SVG Version: 6.00 Build 0)  -->

<svg
   xmlns:dc="http://purl.org/dc/elements/1.1/"
   xmlns:cc="http://creativecommons.org/ns#"
   xmlns:rdf="http://www.w3.org/1999/02/22-rdf-syntax-ns#"
   xmlns:svg="http://www.w3.org/2000/svg"
   xmlns="http://www.w3.org/2000/svg"
   xmlns:sodipodi="http://sodipodi.sourceforge.net/DTD/sodipodi-0.dtd"
   xmlns:inkscape="http://www.inkscape.org/namespaces/inkscape"
   version="1.1"
   id="Capa_1"
   x="0px"
   y="0px"
   viewBox="0 0 250.00001 250.00001"
   xml:space="preserve"
   sodipodi:docname="upload.svg"
   width="250"
   height="250"
   inkscape:version="0.92.5 (2060ec1f9f, 2020-04-08)"><metadata
   id="metadata45"><rdf:RDF><cc:Work
       rdf:about=""><dc:format>image/svg+xml</dc:format><dc:type
         rdf:resource="http://purl.org/dc/dcmitype/StillImage" /><dc:title></dc:title></cc:Work></rdf:RDF></metadata><defs
   id="defs43" /><sodipodi:namedview
   pagecolor="#ffffff"
   bordercolor="#666666"
   borderopacity="1"
   objecttolerance="10"
   gridtolerance="10"
   guidetolerance="10"
   inkscape:pageopacity="0"
   inkscape:pageshadow="2"
   inkscape:window-width="1366"
   inkscape:window-height="719"
   id="namedview41"
   showgrid="false"
   inkscape:zoom="0.97059431"
   inkscape:cx="168.97815"
   inkscape:cy="240.29627"
   inkscape:window-x="0"
   inkscape:window-y="0"
   inkscape:window-maximized="1"
   inkscape:current-layer="Capa_1" />
<g
   id="g8"
   transform="matrix(0.51271188,0,0,0.53699686,0,-5.6608221)">
	<g
   id="g6">
		<path
   d="M 395.5,135.8 C 390.3,104.9 375,76.7 351.6,55.3 c -26,-23.8 -59.8,-36.9 -95,-36.9 -27.2,0 -53.7,7.8 -76.4,22.5 -18.9,12.2 -34.6,28.7 -45.7,48.1 -4.8,-0.9 -9.8,-1.4 -14.8,-1.4 -42.5,0 -77.1,34.6 -77.1,77.1 0,5.5 0.6,10.8 1.6,16 -27.5,20 -44.2,52.2 -44.2,86.5 0,27.7 10.3,54.6 29.1,75.9 19.3,21.8 44.8,34.7 72,36.2 0.3,0 0.5,0 0.8,0 h 86 c 7.5,0 13.5,-6 13.5,-13.5 0,-7.5 -6,-13.5 -13.5,-13.5 H 102.3 C 61.4,349.8 27,310.9 27,267.1 c 0,-28.3 15.2,-54.7 39.7,-69 5.7,-3.3 8.1,-10.2 5.9,-16.4 -2,-5.4 -3,-11.1 -3,-17.2 0,-27.6 22.5,-50.1 50.1,-50.1 5.9,0 11.7,1 17.1,3 6.6,2.4 13.9,-0.6 16.9,-6.9 18.7,-39.7 59.1,-65.3 103,-65.3 59,0 107.7,44.2 113.3,102.8 0.6,6.1 5.2,11 11.2,12 44.5,7.6 78.1,48.7 78.1,95.6 0,49.7 -39.1,92.9 -87.3,96.6 h -73.7 c -7.5,0 -13.5,6 -13.5,13.5 0,7.5 6,13.5 13.5,13.5 h 74.2 c 0.3,0 0.6,0 1,0 30.5,-2.2 59,-16.2 80.2,-39.6 21.1,-23.2 32.6,-53 32.6,-84 -0.1,-56.1 -38.4,-106 -90.8,-119.8 z"
   id="path2"
   inkscape:connector-curvature="0" />
		<path
   d="m 324.2,280 c 5.3,-5.3 5.3,-13.8 0,-19.1 l -71.5,-71.5 c -2.5,-2.5 -6,-4 -9.5,-4 -3.5,0 -7,1.4 -9.5,4 l -71.5,71.5 c -5.3,5.3 -5.3,13.8 0,19.1 2.6,2.6 6.1,4 9.5,4 3.4,0 6.9,-1.3 9.5,-4 l 48.5,-48.5 v 222.9 c 0,7.5 6,13.5 13.5,13.5 7.5,0 13.5,-6 13.5,-13.5 V 231.5 l 48.5,48.5 c 5.2,5.3 13.7,5.3 19,0 z"
   id="path4"
   inkscape:connector-curvature="0" />
	</g>
</g>
<g
   id="g10"
   transform="translate(0,-236.29999)">
</g>
<g
   id="g12"
   transform="translate(0,-236.29999)">
</g>
<g
   id="g14"
   transform="translate(0,-236.29999)">
</g>
<g
   id="g16"
   transform="translate(0,-236.29999)">
</g>
<g
   id="g18"
   transform="translate(0,-236.29999)">
</g>
<g
   id="g20"
   transform="translate(0,-236.29999)">
</g>
<g
   id="g22"
   transform="translate(0,-236.29999)">
</g>
<g
   id="g24"
   transform="translate(0,-236.29999)">
</g>
<g
   id="g26"
   transform="translate(0,-236.29999)">
</g>
<g
   id="g28"
   transform="translate(0,-236.29999)">
</g>
<g
   id="g30"
   transform="translate(0,-236.29999)">
</g>
<g
   id="g32"
   transform="translate(0,-236.29999)">
</g>
<g
   id="g34"
   transform="translate(0,-236.29999)">
</g>
<g
   id="g36"
   transform="translate(0,-236.29999)">
</g>
<g
   id="g38"
   transform="translate(0,-236.29999)">
</g>
</svg>