<?xml version="1.0" encoding="UTF-8" standalone="no"?>
<svg
   xmlns:dc="http://purl.org/dc/elements/1.1/"
   xmlns:cc="http://creativecommons.org/ns#"
   xmlns:rdf="http://www.w3.org/1999/02/22-rdf-syntax-ns#"
   xmlns:svg="http://www.w3.org/2000/svg"
   xmlns="http://www.w3.org/2000/svg"
   xmlns:sodipodi="http://sodipodi.sourceforge.net/DTD/sodipodi-0.dtd"
   xmlns:inkscape="http://www.inkscape.org/namespaces/inkscape"
   height="115pt"
   viewBox="0 -5 115.00023 115"
   width="115pt"
   version="1.1"
   id="svg38"
   sodipodi:docname="upload_drag_drop.svg"
   inkscape:version="1.0.2-2 (e86c870879, 2021-01-15)">
  <metadata
     id="metadata44">
    <rdf:RDF>
      <cc:Work
         rdf:about="">
        <dc:format>image/svg+xml</dc:format>
        <dc:type
           rdf:resource="http://purl.org/dc/dcmitype/StillImage" />
        <dc:title></dc:title>
      </cc:Work>
    </rdf:RDF>
  </metadata>
  <defs
     id="defs42" />
  <sodipodi:namedview
     pagecolor="#ffffff"
     bordercolor="#666666"
     borderopacity="1"
     objecttolerance="10"
     gridtolerance="10"
     guidetolerance="10"
     inkscape:pageopacity="0"
     inkscape:pageshadow="2"
     inkscape:window-width="1920"
     inkscape:window-height="1017"
     id="namedview40"
     showgrid="false"
     inkscape:zoom="3.5217232"
     inkscape:cx="115.88304"
     inkscape:cy="98.015964"
     inkscape:window-x="-8"
     inkscape:window-y="-8"
     inkscape:window-maximized="1"
     inkscape:current-layer="svg38" />
  <g
     id="g55"
     transform="matrix(0.22384475,0,0,0.22662545,0,-3.8293838)">
    <g
       id="g47"
       transform="translate(0,-3.000006)">
      <path
         d="M 396.00781,131.21094 C 394.48828,110.28516 385.82422,90.757812 371.05078,75.386719 353.87891,57.515625 330.77344,47.675781 305.98828,47.675781 c -11.38672,0 -22.70703,2.164063 -33.22656,6.3125 C 263.77344,39.226562 251.47656,26.6875 236.77344,17.375 218.82813,6.007812 198.0625,0 176.73047,0 114.79297,0 64.398438,50.390625 64.398438,112.32813 c 0,10.49218 1.4375,20.80859 4.277343,30.78124 C 49.875,152.17187 33.769531,165.89453 21.71875,183.20312 7.511719,203.60937 0,227.58594 0,252.54687 0,319.51562 54.484375,374 121.46094,374 h 6.00781 v 108.04687 c 0,11 8.96484,19.95313 19.98438,19.95313 h 173.44531 c 11,0 19.95312,-8.95313 19.95312,-19.95313 v -18.70703 h 17.57422 c 11.01953,0 19.98438,-8.95312 19.98438,-19.95703 V 374 h 12.13281 C 457.51562,374 512,319.51562 512,252.54297 512,187.40625 460.45312,134.08203 396.00781,131.21094 Z m -64.98437,312.125 c -0.0586,0 -0.11719,-0.008 -0.17578,-0.008 -0.0625,0 -0.1211,0.008 -0.1836,0.008 l -145.65625,0.0508 v -62.10156 c 0,-5.52735 -4.47656,-10.00782 -10.0039,-10.00782 -5.52735,0 -10.00782,4.48047 -10.00782,10.00782 v 62.10156 c 0,11 8.96485,19.95312 19.98438,19.95312 h 135.8789 l 0.0391,18.65235 -173.41797,0.0547 v -77.60546 l -0.008,-40.29297 c 0,-0.0547 0.008,-0.10157 0.008,-0.15235 0,-0.0547 -0.008,-0.10547 -0.008,-0.15625 l -0.0234,-106.98437 h 17.54687 v 44.55469 c 0,5.52734 4.48047,10.00781 10.00782,10.00781 5.52343,0 10.0039,-4.48047 10.0039,-10.00781 l -0.0156,-54.20313 c 0.004,-0.11719 0.0156,-0.23828 0.0156,-0.35937 0,-0.1211 -0.0117,-0.23829 -0.0156,-0.36329 l -0.0117,-28.28906 h 32.42969 c 0.58203,15.83594 13.6289,28.53906 29.58984,28.53906 15.96484,0 29.01172,-12.70312 29.59375,-28.53906 h 23.41406 v 28.6836 c 0,15.03515 12.21875,27.26562 27.23828,27.26562 h 31.15235 l 0.0156,89.53516 c -0.004,0.10547 -0.0156,0.20703 -0.0156,0.3164 0,0.10547 0.0117,0.20703 0.0156,0.3125 l 0.0117,79.01953 z M 227.45703,173.80469 c -2.07422,-0.0117 -4.04687,-0.69922 -5.71094,-1.98438 -4.16406,-3.22656 -4.93359,-9.24219 -1.71093,-13.42187 l 18.45312,-23.94922 c 0.15625,-0.20703 0.30859,-0.42188 0.45313,-0.64063 1.79296,-2.75 4.80468,-4.39062 8.05859,-4.39062 3.25391,0 6.26562,1.64453 8.0625,4.39062 0.14062,0.21875 0.29297,0.4336 0.45312,0.64063 l 18.45704,23.95703 c 3.21875,4.17187 2.44922,10.1875 -1.71875,13.41016 -1.66016,1.28515 -3.63672,1.97656 -5.71094,1.98828 -5.4961,0.0391 -9.9336,4.50781 -9.9336,10.00781 v 33.27344 c 0,5.3164 -4.30859,9.63672 -9.60937,9.63672 -5.29688,0 -9.60938,-4.32032 -9.60938,-9.63672 V 183.8125 c 0,-5.5 -4.4375,-9.96875 -9.93359,-10.00781 z m 92.55859,73.07031 v -15.24219 l 23.48438,22.5 h -16.25391 c -3.91797,0 -7.23047,-3.32422 -7.23047,-7.25781 z m 70.52344,107.11328 h -12.13281 v -89.85156 c 0,-2.70703 -1.12891,-5.34766 -3.08203,-7.22266 l -58.39063,-55.94922 c -1.84375,-1.76562 -4.37109,-2.78125 -6.92187,-2.78125 h -33.39063 v -6.16015 c 2.80469,-1.03125 5.45313,-2.5 7.88282,-4.38282 12.8789,-9.96875 15.26171,-28.5664 5.3164,-41.45312 L 271.58203,122.51563 C 266.05078,114.30078 256.89453,109.41016 247,109.41016 c -9.89453,0 -19.05078,4.89062 -24.58203,13.10547 l -18.23047,23.66406 c -9.94922,12.89453 -7.56641,31.49218 5.30859,41.46484 2.42969,1.87891 5.08204,3.34766 7.88282,4.37891 v 6.16015 h -32.39844 c -11.01953,0 -19.98438,8.96485 -19.98438,19.98047 v 18.67969 h -17.54296 c -11.01954,0 -19.98438,8.96484 -19.98438,19.98437 v 97.16016 h -6.00781 c -55.941409,0 -101.449221,-45.50391 -101.449221,-101.4414 0,-42.17188 25.378906,-79.29688 64.65625,-94.58594 5.117187,-1.99219 7.675781,-7.73828 5.726562,-12.875 -3.96875,-10.46094 -5.984375,-21.48047 -5.984375,-32.75781 0,-50.902349 41.417974,-92.316411 92.324224,-92.316411 35.35156,0 67.07421,19.691406 82.78906,51.382812 1.19922,2.417969 3.32422,4.25 5.89062,5.078125 2.56641,0.828125 5.36328,0.582032 7.75,-0.679687 10.16797,-5.378907 21.21094,-8.105469 32.82422,-8.105469 19.28906,0 37.26953,7.660156 50.63281,21.566406 13.38282,13.921874 20.32813,32.226564 19.5586,51.531254 -0.11328,2.78906 0.94531,5.49609 2.92187,7.46875 1.96875,1.97265 4.66797,3.0625 7.46875,2.92578 1.32422,-0.0508 2.625,-0.0781 3.97266,-0.0781 55.9375,0 101.44922,45.50782 101.44922,101.44532 0,55.93749 -45.51172,101.4414 -101.45313,101.4414 z m 0,0"
         id="path28" />
    </g>
    <path
       d="m 321.09375,296.96094 h -80.58594 c -5.52344,0 -10.0039,4.48047 -10.0039,10.0039 0,5.52735 4.47656,10.00782 10.0039,10.00782 h 80.58594 c 5.52734,0 10.00781,-4.48047 10.00781,-10.00782 0,-5.52343 -4.48047,-10.0039 -10.00781,-10.0039 z m 0,0"
       id="path30" />
    <path
       d="m 321.09375,343.24609 h -99.83203 c -5.52344,0 -10.00391,4.47657 -10.00391,10.00391 0,5.52734 4.47656,10.00781 10.00391,10.00781 h 99.83203 c 5.52734,0 10.00781,-4.48047 10.00781,-10.00781 0,-5.52734 -4.48047,-10.00391 -10.00781,-10.00391 z m 0,0"
       id="path32" />
    <path
       d="m 321.09375,389.55859 h -99.83203 c -5.52344,0 -10.00391,4.48047 -10.00391,10.00782 0,5.52343 4.47656,10.0039 10.00391,10.0039 h 99.83203 c 5.52734,0 10.00781,-4.47656 10.00781,-10.0039 0,-5.52735 -4.48047,-10.00782 -10.00781,-10.00782 z m 0,0"
       id="path34" />
    <path
       d="m 175.00391,331.14453 c -5.52735,0 -10.00782,4.47656 -10.00782,10.00391 v 0.19922 c 0,5.52734 4.48047,10.0039 10.00782,10.0039 5.52343,0 10.0039,-4.47656 10.0039,-10.0039 v -0.19922 c 0,-5.52735 -4.47656,-10.00391 -10.0039,-10.00391 z m 0,0"
       id="path36" />
  </g>
</svg>
